<svg width="38" height="38" viewBox="0 0 38 38" fill="none" xmlns="http://www.w3.org/2000/svg">
<rect width="38" height="38" rx="5" fill="#10B981"/>
<path d="M27.9935 25.7563L24.0219 21.7847C25.022 20.5177 25.6249 18.9226 25.6249 17.1875C25.6249 13.0864 22.2885 9.75 18.1874 9.75C14.0863 9.75 10.7499 13.0864 10.7499 17.1875C10.7499 21.2886 14.0863 24.625 18.1874 24.625C19.9234 24.625 21.5176 24.023 22.7846 23.022L26.7563 26.9937C26.9269 27.1643 27.1509 27.25 27.3749 27.25C27.5989 27.25 27.8229 27.1643 27.9935 26.9937C28.3356 26.6515 28.3356 26.0985 27.9935 25.7563ZM12.4999 17.1875C12.4999 14.0515 15.0514 11.5 18.1874 11.5C21.3234 11.5 23.8749 14.0515 23.8749 17.1875C23.8749 20.3235 21.3234 22.875 18.1874 22.875C15.0514 22.875 12.4999 20.3235 12.4999 17.1875Z" fill="white"/>
</svg>
