<svg width="18" height="28" viewBox="0 0 18 28" fill="none" xmlns="http://www.w3.org/2000/svg">
<path d="M16.5466 12.1067L5.23997 0.800026C4.99207 0.550083 4.69713 0.351698 4.37217 0.216315C4.04722 0.0809318 3.69867 0.0112305 3.34664 0.0112305C2.9946 0.0112305 2.64606 0.0809318 2.3211 0.216315C1.99614 0.351698 1.7012 0.550083 1.4533 0.800026C0.956634 1.29966 0.677856 1.97553 0.677856 2.68003C0.677856 3.38452 0.956634 4.06039 1.4533 4.56003L10.8933 14L1.4533 23.44C0.956634 23.9397 0.677856 24.6155 0.677856 25.32C0.677856 26.0245 0.956634 26.7004 1.4533 27.2C1.70248 27.4472 1.99799 27.6427 2.32289 27.7754C2.64779 27.9081 2.99569 27.9754 3.34664 27.9734C3.69759 27.9754 4.04549 27.9081 4.37039 27.7754C4.69529 27.6427 4.9908 27.4472 5.23997 27.2L16.5466 15.8934C16.7966 15.6455 16.995 15.3505 17.1303 15.0256C17.2657 14.7006 17.3354 14.3521 17.3354 14C17.3354 13.648 17.2657 13.2994 17.1303 12.9745C16.995 12.6495 16.7966 12.3546 16.5466 12.1067Z" fill="#10B981"/>
</svg>
